<?xml version="1.0" encoding="utf-8"?>
<!-- Generator: Adobe Illustrator 26.1.0, SVG Export Plug-In . SVG Version: 6.00 Build 0)  -->
<svg version="1.1" id="Capa_1" xmlns="http://www.w3.org/2000/svg" xmlns:xlink="http://www.w3.org/1999/xlink" x="0px" y="0px"
	 viewBox="0 0 841.89 595.28" style="enable-background:new 0 0 841.89 595.28;" xml:space="preserve">
<style type="text/css">
	.st0{fill:#3C3C3B;}
</style>
<g>
	<g>
		<path class="st0" d="M192.47,152.53c0.76,13.27,1.23,28.33,1.33,44.37c2.46-4.39,7.49-14.86,7.49-27.07
			c0-16.17-8.82-29.28-8.82-29.28s-8.82,13.11-8.82,29.28c0,12.22,5.03,22.68,7.49,27.07C191.24,180.86,191.71,165.8,192.47,152.53z
			"/>
		<path class="st0" d="M164.76,173.49c8.04,6.75,16.95,14.64,26.23,23.27c-1.19-3.79-4.48-12.35-11.51-18.97
			c-9.3-8.76-21.61-10.79-21.61-10.79s2.76,12.17,12.06,20.93c7.02,6.62,15.76,9.39,19.62,10.36
			C180.38,189.53,171.97,181.11,164.76,173.49z"/>
	</g>
	<path class="st0" d="M319.18,325.44c-9.74,0-17.67,6.11-17.67,15.36c0,6.61,4.62,10.9,10.24,10.9c4.62,0,5.62-1.82,8.92-1.82
		c1.98,0,3.3,1.82,3.3,4.3c0,7.93-7.93,14.37-17.01,14.37c-14.04,0-23.78-8.92-18.66-28.9l24.74-98.94l0,0l4.88-18.74
		c2.31-9.58,4.79-10.74,15.53-11.56l1.65-6.94h-39.31c-17.68,15.36-32.71,28.74-45.09,40.8c-3.63-13.71-9.42-27.09-17.18-40.8
		h-42.78l-1.65,6.94c10.41,0.82,12.55,1.98,10.24,11.56l-24.4,97.36c-2.31,9.42-5.12,10.74-15.86,11.56l-1.82,6.94h38.98l1.65-6.94
		c-10.41-0.83-12.56-2.15-10.08-11.56l23.25-93.23c7.43,15.2,13.05,29.73,16.52,42.78c-11.4,13.88-17.18,25.44-17.18,36.17
		c0,10.4,6.27,16.52,16.68,16.52c15.2,0,28.08-19.82,28.08-43.94c0-6.94-0.66-13.71-1.65-20.32c9.74-10.08,21.14-20.65,33.37-31.38
		l-1.68,6.51l-0.02,0l-23.62,94.65c-9.91,39.48,14.21,52.69,39.48,52.69c23.13,0,38.32-15.03,38.32-33.53
		C339.33,333.53,330.25,325.6,319.18,325.44z M226.23,310.33c-1.98,0-3.3-1.82-3.3-5.12c0-5.78,2.81-12.72,7.93-20.65
		c0.66,4.46,0.99,8.76,0.99,12.39C231.85,306.21,229.7,310.33,226.23,310.33z"/>
	<path class="st0" d="M312.16,319.32l1.82-6.94c7.6-0.83,9.42-2.31,10.57-7.27l9.75-39.15c0.99-3.47,0.33-4.96-2.65-4.96h-5.12
		l1.65-6.44l28.74-13.88h9.58l-16.02,64.42c-1.15,4.96-0.17,6.44,7.27,7.27l-1.82,6.94H312.16z M360.22,202.87
		c9.09,0,14.37,6.77,14.37,13.38c0,6.94-5.62,14.04-15.36,14.04c-9.08,0-13.87-6.44-13.87-13.21
		C345.36,210.14,350.65,202.87,360.22,202.87z"/>
	<path class="st0" d="M362.21,319.32l1.82-6.94c7.6-0.83,9.42-2.31,10.57-7.27l19.49-78.62c0.99-3.47,0.33-4.96-2.65-4.96h-5.12
		l1.65-6.44l28.74-13.88h9.58l-18.83,75.98l17.68-13.88c8.42-6.44,10.9-12.39-0.5-13.21l1.65-6.94h42.95l-1.82,6.94
		c-8.26,0.82-11.4,2.48-21.64,10.4l-8.09,6.44c14.54,69.04,25.35,77.22,37.41,77.22c11.73,0,10.9-17.84,24.78-17.84
		c6.28,0,10.41,4.3,10.41,10.24c0,12.22-15.03,19.16-33.2,19.16c-31.55,0-49.96-27.33-61.85-71.77l-11.73,9.09l-2.97,12.06
		c-1.15,4.96-0.17,6.44,7.27,7.27l-1.82,6.94H362.21z"/>
	<path class="st0" d="M459.12,287.94c0-28.41,21.14-47.24,46.91-47.24c18.17,0,33.86,8.26,33.86,27.75l-54.84,16.85
		c-0.33,2.48-0.33,4.79-0.33,6.94c0,12.06,5.95,18.5,17.01,18.5c8.59,0,14.04-5.12,14.04-9.42c0-2.97-1.82-4.46-1.82-7.93
		c0-7.27,6.28-11.89,12.39-11.73c7.43,0,10.57,5.45,10.41,11.56c-0.5,13.71-16.69,28.58-38.65,28.58
		C474.32,321.8,459.12,306.94,459.12,287.94z M487.2,273.4l30.56-9.58c0.99-8.59-2.81-13.21-10.74-13.21
		C496.45,250.61,490.34,261.51,487.2,273.4z"/>
	<path class="st0" d="M537.09,319.32l1.82-6.94c7.6-0.83,9.42-2.31,10.57-7.27l19.49-78.62c0.82-3.47,0.33-4.96-2.65-4.96h-5.12
		l1.65-6.44l28.74-13.88h9.58l-25.77,103.9c-1.15,4.96-0.17,6.44,7.27,7.27l-1.82,6.94H537.09z"/>
	<path class="st0" d="M622.35,201.22c9.91,0,15.36,7.43,15.36,15.53c0,13.54-18.83,30.72-31.38,39.48l-4.46-4.63
		c7.1-6.44,13.05-12.55,16.85-19.82c-7.93-0.99-12.89-7.1-12.89-14.7C605.83,209.15,611.78,201.22,622.35,201.22z"/>
	<path class="st0" d="M613.8,289.76c6.44,14.87,19.66,22.3,30.56,22.3c7.43,0,13.21-3.47,13.21-9.75c0-13.71-40.3-10.08-40.3-35.68
		c0-15.2,14.54-25.93,34.69-25.93c10.9,0,17.34,3.47,21.8,7.1l2.97-4.62h6.11l1.82,25.77l-6.61,0.66
		c-4.95-12.89-15.36-19.66-24.28-19.66c-6.94,0-10.74,3.8-10.74,8.42c0,13.05,39.15,9.75,39.15,35.35
		c0,17.34-16.02,28.08-35.35,28.08c-11.4,0-20.98-3.96-25.77-8.92c0.5,3.47,0.66,7.27,0.66,11.23c0,24.78-14.7,39.31-33.7,39.31
		c-17.84,0-28.25-9.42-28.08-22.63c0.16-6.11,4.3-14.54,13.54-14.54c5.12,0,10.41,3.63,10.41,9.09s-3.47,7.27-3.47,10.9
		c0,2.81,1.98,6.61,8.42,6.61c12.39,0,22.63-10.57,22.63-29.9c0-10.24-1.49-20.15-4.79-30.39L613.8,289.76z"/>
	<path class="st0" d="M431.44,400.37c-3.77,2.62-8.28,5-13.52,5c-5.9,0-10-3.2-10-8.36c0-9.91,12.05-15.16,27.86-15.49l1.15-4.51
		c1.31-5.24,0.41-6.88-3.11-6.88c-2.79,0-4.59,1.31-6.39,4.43c-1.97,3.36-4.51,4.92-7.46,4.92c-2.13,0-4.34-1.23-4.34-4.26
		c0-5.82,6.88-9.91,19.58-9.91c7.87,0,16.55,2.87,13.93,13.27l-4.51,17.95c-0.49,2.21,0,3.11,1.47,3.11c0.57,0,1.39-0.08,2.62-0.57
		l-1.15,4.18c-2.54,1.39-5.24,2.05-8.93,2.05C434.47,405.28,431.44,404.14,431.44,400.37z M432.34,395.45l2.29-9.34
		c-8.11,0.25-12.95,2.95-12.95,7.95c0,2.38,1.56,3.77,4.26,3.77C427.84,397.83,430.21,396.93,432.34,395.45z"/>
	<path class="st0" d="M450.45,404.52l0.9-3.44c3.77-0.41,4.67-1.15,5.24-3.6l4.83-19.42c0.49-1.72,0.16-2.46-1.31-2.46h-2.54
		l0.82-3.19l14.26-6.88h4.75l-1.15,4.51c2.87-2.62,6.88-4.51,10.49-4.51c4.01,0,6.31,2.13,6.31,5.65c0,4.59-3.2,7.37-6.72,7.37
		c-5,0-4.02-4.26-6.72-4.26c-1.64,0-3.44,0.82-5.08,2.79l-5.08,20.4c-0.57,2.46-0.08,3.2,3.61,3.6l-0.9,3.44H450.45z"/>
	<path class="st0" d="M513.65,403.94c-2.27,0.71-5.97,1.34-8.91,1.43c-1.35,0.09-2.61,0-3.78-0.09c-4.96-0.62-7.9-2.94-7.4-8.64
		c0-1.25,0.25-2.58,0.59-4.1l5.55-23.69h-4.62l0.76-3.47c7.74-2.76,12.86-7.84,16.65-15.68h4.88l-3.19,13.45h9.08l-1.35,5.7h-9.08
		l-5.72,24.49c-0.92,4.45,0.08,6.06,2.94,6.06c1.43,0,3.53-0.36,4.96-0.89L513.65,403.94z"/>
	<path class="st0" d="M393.89,359.32c12,0,23.14-5.97,23.14-16.53c0-7.83-5.68-12.15-12.08-12.15c-7.91,0-12.72,4.53-12.72,9.27
		c0,2.8,2.16,5.61,5.53,5.61c5.61,0,5.82-6.47,10.21-6.47c2.08,0,3.52,1.44,3.52,4.24c0,4.53-4.24,7.98-11.07,7.98
		c-7.19,0-16.6-4.24-26.16-6.54l-6.4-1.22c-1.51-0.22-3.02-0.29-4.53-0.29c-10.64,0-17.61,7.11-17.61,14.66
		c0,3.67,2.51,6.54,6.33,6.54c3.45,0,5.57-3.11,5.89-5.89c0.2-1.66-0.28-2.52,0.27-4.68c0.56-2.22,2.27-2.85,3.12-2.92
		c3.29-0.18,6.88,0.91,5.86,5.45l-9.67,39c-1.15,4.67-2.46,5.33-7.78,5.74l-0.9,3.44h48.59l10.57-16.63l-2.7-1.8
		c-7.21,7.05-16.96,12.86-27.37,12.86h-4.26c-1.47,0-1.97-0.98-1.64-2.46l4.75-19.09h9.42c5.9,0,6.06,2.95,5.24,7.05h3.85
		l4.83-19.66h-3.85c-1.23,4.1-2.79,7.05-8.69,7.05h-9.42l3.72-15.09C385.53,358.25,389.5,359.32,393.89,359.32z"/>
	<path class="st0" d="M583.52,410.03c-0.34-2.48-2.43-4.01-5.22-3.62c-6.17,0.86-6.1,10.89-13.07,8.99
		c-4.1-1.12-2.28-10.99,4.58-36.15c3.09-11.35-3.71-13.39-10.25-13.39c-4.03,0-8.96,1.7-12.75,3.79l5.65-22.67h-5.73l-15.25,7.02
		l-0.97,3.95h2.26c1.29,0,1.45,0.65,1.05,2.26l-9.2,37.2c-0.48,2.1-1.21,2.74-4.6,3.15l-1.05,4.12h23.08l1.05-4.12
		c-3.23-0.4-3.63-1.05-3.15-3.15l5.33-21.46c2.02-1.13,3.87-1.86,5.97-1.86c7.52,0,3.9,12.41,2.8,19.01
		c-3.55,21.29,5.03,26.82,15.81,26.96C578.02,420.16,584.23,415.12,583.52,410.03z"/>
	<g>
		<path class="st0" d="M353.82,441.23c0.51,3.43,2.27,8.16,7.36,8.16c3.07,0,5.55-2.22,5.55-6.04c0-2.56-1.64-4.34-4.32-6.47
			l-1.38-0.99c-2.03-1.64-5.09-4.15-5.09-7.92c0-4.63,3.67-8.11,9.2-8.11c1.42,0,3.02,0.31,4.2,0.8c0.89,0.31,1.74,0.65,2.08,0.7
			c-0.19,1.93-0.1,4.49-0.14,6.37l-1.42,0.15c-0.36-3.69-1.64-6.42-5.46-6.42c-3.16,0-5.14,2.46-5.14,5.33
			c0,2.68,1.98,4.35,4.37,6.13l1.38,1.09c3.11,2.32,5.24,4.71,5.24,8.3c0,5.24-4.59,8.67-9.73,8.67c-3.72,0-6.88-1.69-7.87-2.83
			c-0.05-1.13-0.1-3.57-0.19-6.78L353.82,441.23z"/>
		<path class="st0" d="M382.3,446.3c-1.25,1.54-4.8,4.51-6.59,4.51c-0.89,0-1.47-0.7-0.48-4.51l2.97-11.85
			c0.24-0.94,0.29-1.5-0.07-1.5c-0.34,0-1.76,0.84-3.26,2.12l-0.58-1.13c2.46-2.46,5.62-4.3,6.81-4.3c1.04,0,0.99,1.42,0.41,3.45
			l-3.21,12.96c-0.36,1.09-0.27,1.42,0.05,1.42c0.63,0,2.27-1.33,3.31-2.27L382.3,446.3z M383.53,422.86
			c0.05,1.4-0.94,2.58-2.34,2.58c-0.99,0-1.81-0.84-1.81-1.98c-0.05-1.13,0.89-2.63,2.37-2.63
			C382.92,420.83,383.53,421.82,383.53,422.86z"/>
		<path class="st0" d="M406.34,446.39c-2.56,2.92-5.19,4.42-6.37,4.42c-0.7,0-1.11-0.53-1.11-1.74c0-0.72,0.15-1.71,0.46-2.97
			c0.89-3.45,1.69-6.98,2.53-10.38c0.24-1.04,0.36-1.76,0.36-2.27c0-0.77-0.27-1.04-0.72-1.04c-2.12,0-7.65,5.67-10.07,9.78
			c-0.6,2.27-1.3,4.95-1.83,7.72c-1.04,0.24-2.17,0.58-2.97,0.89l-0.34-0.31c1.28-4.9,2.7-10.72,3.84-15.67
			c0.36-1.47,0.22-1.88-0.1-1.88c-0.39,0-1.81,1.09-3.02,2.22l-0.63-1.18c2.37-2.66,5.05-4.35,6.32-4.35c0.56,0,0.84,0.46,0.84,1.47
			c0,0.84-0.19,2.08-0.6,3.72l-0.89,3.77h0.1c3.23-4.42,6.78-6.98,8.62-8.01c1.23-0.7,2.12-0.94,3.02-0.94
			c0.72,0,1.57,0.31,1.57,2.39c0,0.92-0.17,2.17-0.58,3.89c-0.75,3.26-1.54,6.64-2.34,9.9c-0.34,1.28-0.24,1.67,0.1,1.67
			c0.41,0,1.59-0.77,3.07-2.27L406.34,446.39z"/>
		<path class="st0" d="M424,445.76c-2.87,3.16-6.49,5.05-9.2,5.05c-2.87,0-4.85-2.34-4.85-6.69c0-3.81,1.83-8.4,4.8-11.08
			c1.93-1.71,5.04-3.4,7.27-3.4c1.93,0,3.36,1.18,3.36,2.22c0.05,0.7-0.39,1.54-1.38,2.03c-0.41,0.24-0.7,0.14-0.99-0.24
			c-0.89-1.23-1.98-1.79-3.43-1.79c-1.91,0-3.21,1.64-4.1,3.16c-1.18,2.08-2.03,5.19-2.03,8.21c0,3.26,1.3,4.9,3.23,4.9
			c2.41,0,5.33-2.12,6.57-3.45L424,445.76z"/>
		<path class="st0" d="M441.94,445.67c-4.1,4.44-7.6,5.14-9.58,5.14c-2.03,0-5.04-1.21-5.04-6.64c0-4.39,1.98-9.25,5.53-11.97
			c2.08-1.62,4.32-2.56,6.23-2.56c2.34,0,4.06,1.74,4.06,3.77c0,4.59-7.94,7.05-12.36,8.11c-0.05,0.53-0.05,0.92-0.05,1.47
			c0,2.51,0.75,5.14,3.62,5.14c1.98,0,4.49-1.33,6.83-3.62L441.94,445.67z M435.37,432.2c-1.23,0.7-3.57,2.68-4.39,7.82
			c6.9-1.74,8.98-3.91,8.98-5.94c0-1.52-0.99-2.46-2.46-2.46C436.75,431.62,435.95,431.81,435.37,432.2z"/>
		<path class="st0" d="M466.43,444.77c-0.75,3.64-0.53,3.84,3.96,4.15l-0.29,1.33h-12.31l0.29-1.33c4.15-0.31,4.39-0.41,5.14-4.15
			l2.58-13.2c0.6-2.75,0.29-2.97-2.46-2.92l-1.59-0.05l0.29-1.23c2.97-0.48,5.7-1.23,8.16-2.37L466.43,444.77z"/>
		<path class="st0" d="M497.28,427.42c0,1.62-0.77,3.4-1.98,4.39c-0.68,0.6-1.71,1.5-4.25,3.11c2.78,2.12,5,4.01,5,7.31
			c0,4.61-4.34,8.57-9.87,8.57c-4.1,0-7.92-2.54-7.92-7.07c0-1.98,0.8-3.48,2.46-4.9c1.13-1.04,3.16-2.27,5.04-3.57
			c-1.83-1.47-3.64-3.4-3.64-6.42c0-4.1,3.74-7.6,8.54-7.6C494.02,421.24,497.28,423.6,497.28,427.42z M486.85,449.22
			c3.16,0,5.65-2.32,5.65-6.08c0-3.07-2.39-4.8-5.41-6.88c-3.16,1.83-5.38,4.1-5.38,7.43c0,3.16,1.93,5.53,5.09,5.53H486.85z
			 M489.97,422.81c-2.92,0-4.73,2.39-4.73,5.09c0,3.21,2.51,4.71,4.54,6.13c2.73-1.76,4.25-3.96,4.25-6.57
			c0-2.87-1.62-4.66-4.01-4.66H489.97z"/>
		<path class="st0" d="M511.04,444.77c-0.75,3.64-0.53,3.84,3.96,4.15l-0.29,1.33h-12.31l0.29-1.33c4.15-0.31,4.39-0.41,5.14-4.15
			l2.58-13.2c0.6-2.75,0.29-2.97-2.46-2.92l-1.59-0.05l0.29-1.23c2.97-0.48,5.7-1.23,8.16-2.37L511.04,444.77z"/>
		<path class="st0" d="M534.21,425c5.53,0,7.65,5.09,7.65,9.34c0,9.73-6.66,16.42-13.88,19.07c-2.39,0.84-4.9,1.3-5.75,1.3
			l-0.24-1.5c6.08-1.04,12.41-5.14,15.23-12.31l-3.48,1.59c-0.99,0.43-1.93,0.63-2.66,0.63c-3.67,0-6.74-3.26-6.74-7.7
			c0-5.7,4.66-10.43,9.8-10.43H534.21z M533.6,426.57c-3.21,0-5.75,3.33-5.75,7.97c0,3.57,1.83,6.04,5.31,6.04
			c1.38,0,3.45-0.7,4.39-1.47c0.48-1.25,0.8-2.97,0.8-5.21c0-2.12-0.36-7.31-4.71-7.31H533.6z"/>
	</g>
</g>
</svg>
